<svg width="26" height="30" viewBox="0 0 26 30" fill="none" xmlns="http://www.w3.org/2000/svg">
<path d="M25.3766 8.07729C25.3766 8.07729 25.3766 8.07729 25.3766 7.957L25.2864 7.73146C25.255 7.68361 25.2198 7.63835 25.1812 7.59614C25.141 7.53249 25.0957 7.47215 25.0459 7.41571L24.9105 7.31046L24.67 7.19017L13.393 0.228549C13.1541 0.0791938 12.8779 0 12.5961 0C12.3143 0 12.0382 0.0791938 11.7992 0.228549L0.61252 7.19017L0.477197 7.31046L0.341874 7.41571C0.292031 7.47215 0.24678 7.53249 0.206551 7.59614C0.167896 7.63835 0.132699 7.68361 0.101299 7.73146L0.0110836 7.957C0.0110836 7.957 0.0110836 7.957 0.0110836 8.07729C-0.00369455 8.20718 -0.00369455 8.33833 0.0110836 8.46822V21.6096C0.0105723 21.8651 0.0751909 22.1166 0.198839 22.3402C0.322487 22.5638 0.501085 22.7522 0.717771 22.8877L11.9947 29.8493C12.0641 29.8921 12.1404 29.9227 12.2202 29.9395C12.2202 29.9395 12.2954 29.9395 12.3405 29.9395C12.5949 30.0202 12.868 30.0202 13.1224 29.9395C13.1224 29.9395 13.1976 29.9395 13.2427 29.9395C13.3225 29.9227 13.3988 29.8921 13.4682 29.8493V29.8493L24.67 22.8877C24.8867 22.7522 25.0652 22.5638 25.1889 22.3402C25.3125 22.1166 25.3772 21.8651 25.3766 21.6096V8.46822C25.3914 8.33833 25.3914 8.20718 25.3766 8.07729V8.07729ZM11.1377 25.8798L2.86791 20.7676V11.1747L11.1377 16.2719V25.8798ZM12.6412 13.6706L4.22114 8.46822L12.6412 3.28084L21.0613 8.46822L12.6412 13.6706ZM22.4146 20.7676L14.1448 25.8798V16.2719L22.4146 11.1747V20.7676Z" fill="white"/>
</svg>
