<svg width="30" height="31" viewBox="0 0 30 31" fill="none" xmlns="http://www.w3.org/2000/svg">
  <path d="M0.750565 10.5805L14.25 18.3802C14.478 18.5119 14.7367 18.5812 15 18.5812C15.2633 18.5812 15.522 18.5119 15.75 18.3802L29.2494 10.5805C29.4761 10.4497 29.6646 10.2617 29.7962 10.0354C29.9278 9.80914 29.9978 9.55235 29.9994 9.29059C30.0005 9.02629 29.9316 8.7664 29.7999 8.53724C29.6682 8.30808 29.4783 8.1178 29.2494 7.98565L15.75 0.200954C15.522 0.0693068 15.2633 0 15 0C14.7367 0 14.478 0.0693068 14.25 0.200954L0.750565 7.98565C0.521668 8.1178 0.331754 8.30808 0.200054 8.53724C0.0683547 8.7664 -0.000454266 9.02629 0.000595043 9.29059C0.00217504 9.55235 0.0722306 9.80914 0.203799 10.0354C0.335367 10.2617 0.523867 10.4497 0.750565 10.5805V10.5805ZM15 3.29083L25.4996 9.29059L15 15.2904L4.50042 9.29059L15 3.29083ZM27.7495 14.0454L15 21.2901L2.25051 13.9854C2.07931 13.8862 1.89019 13.8219 1.69403 13.7961C1.49787 13.7704 1.29855 13.7836 1.10755 13.8352C0.916543 13.8868 0.737633 13.9757 0.581118 14.0967C0.424604 14.2177 0.293579 14.3685 0.195587 14.5404C3.64989e-05 14.8848 -0.0513609 15.2926 0.0526103 15.6747C0.156581 16.0569 0.407481 16.3824 0.750565 16.5803L14.25 24.38C14.478 24.5116 14.7367 24.581 15 24.581C15.2633 24.581 15.522 24.5116 15.75 24.38L29.2494 16.5803C29.5925 16.3824 29.8434 16.0569 29.9474 15.6747C30.0514 15.2926 30 14.8848 29.8044 14.5404C29.7064 14.3685 29.5754 14.2177 29.4189 14.0967C29.2624 13.9757 29.0835 13.8868 28.8925 13.8352C28.7015 13.7836 28.5021 13.7704 28.306 13.7961C28.1098 13.8219 27.9207 13.8862 27.7495 13.9854V14.0454ZM27.7495 20.0452L15 27.2899L2.25051 19.9852C2.07931 19.886 1.89019 19.8217 1.69403 19.7959C1.49787 19.7701 1.29855 19.7834 1.10755 19.835C0.916543 19.8866 0.737633 19.9754 0.581118 20.0965C0.424604 20.2175 0.293579 20.3683 0.195587 20.5401C3.64989e-05 20.8846 -0.0513609 21.2923 0.0526103 21.6745C0.156581 22.0567 0.407481 22.3822 0.750565 22.5801L14.25 30.3798C14.478 30.5114 14.7367 30.5807 15 30.5807C15.2633 30.5807 15.522 30.5114 15.75 30.3798L29.2494 22.5801C29.5925 22.3822 29.8434 22.0567 29.9474 21.6745C30.0514 21.2923 30 20.8846 29.8044 20.5401C29.7064 20.3683 29.5754 20.2175 29.4189 20.0965C29.2624 19.9754 29.0835 19.8866 28.8925 19.835C28.7015 19.7834 28.5021 19.7701 28.306 19.7959C28.1098 19.8217 27.9207 19.886 27.7495 19.9852V20.0452Z" fill="black"/>
</svg>
