<svg width="30" height="27" viewBox="0 0 30 27" fill="none" xmlns="http://www.w3.org/2000/svg">
<path d="M28.98 3.07141L19.98 0.0753493H19.875C19.8052 0.0683409 19.7348 0.0683409 19.665 0.0753493H19.32H19.125H19.02L10.5 2.99651L1.98 0.0753493C1.75443 0.00106423 1.51441 -0.0186592 1.27971 0.0178021C1.04501 0.0542634 0.822329 0.145867 0.630005 0.285074C0.436142 0.422917 0.277902 0.604848 0.168357 0.815837C0.0588119 1.02683 0.00110543 1.26082 5.0003e-06 1.49848V22.4709C-0.000806742 22.785 0.0972334 23.0913 0.280268 23.3467C0.463302 23.6021 0.722073 23.7935 1.02 23.894L10.02 26.8901C10.3222 26.9885 10.6478 26.9885 10.95 26.8901V26.8901L19.5 24.0438L28.02 26.965C28.1793 26.9866 28.3407 26.9866 28.5 26.965C28.8136 26.9694 29.1198 26.8693 29.37 26.6804C29.5639 26.5425 29.7221 26.3606 29.8316 26.1496C29.9412 25.9386 29.9989 25.7046 30 25.467V4.49454C30.0008 4.18049 29.9028 3.87412 29.7197 3.61875C29.5367 3.36337 29.2779 3.17191 28.98 3.07141V3.07141ZM9 23.3847L3 21.3923V3.58074L9 5.57312V23.3847ZM18 21.3923L12 23.3847V5.57312L18 3.58074V21.3923ZM27 23.3847L21 21.3923V3.58074L27 5.57312V23.3847Z" fill="white"/>
</svg>
