<svg width="28" height="29" viewBox="0 0 28 29" fill="none" xmlns="http://www.w3.org/2000/svg">
<path d="M19.1988 15.056C20.5781 13.9722 21.5849 12.486 22.0791 10.8042C22.5732 9.12234 22.5302 7.32849 21.956 5.6722C21.3818 4.01591 20.305 2.57955 18.8753 1.56293C17.4456 0.546311 15.7342 0 13.9791 0C12.2241 0 10.5127 0.546311 9.08298 1.56293C7.65329 2.57955 6.57644 4.01591 6.00224 5.6722C5.42803 7.32849 5.38502 9.12234 5.8792 10.8042C6.37337 12.486 7.38016 13.9722 8.75949 15.056C6.39598 16.0017 4.33374 17.5701 2.79262 19.5942C1.25149 21.6183 0.289254 24.0221 0.00848627 26.5494C-0.0118372 26.7339 0.00442949 26.9207 0.0563571 27.0989C0.108285 27.2771 0.194856 27.4434 0.311129 27.5882C0.545954 27.8807 0.887503 28.0681 1.26064 28.1091C1.63378 28.15 2.00793 28.0413 2.30081 27.8068C2.59368 27.5723 2.78127 27.2312 2.82231 26.8585C3.13125 24.1119 4.44264 21.5752 6.50592 19.7332C8.5692 17.8911 11.2397 16.8728 14.0073 16.8728C16.7748 16.8728 19.4453 17.8911 21.5086 19.7332C23.5719 21.5752 24.8833 24.1119 25.1922 26.8585C25.2305 27.2038 25.3954 27.5227 25.6553 27.7536C25.9151 27.9845 26.2513 28.1112 26.5991 28.1091H26.7539C27.1227 28.0667 27.4598 27.8804 27.6917 27.5909C27.9236 27.3014 28.0315 26.9321 27.992 26.5635C27.7099 24.029 26.7425 21.619 25.1934 19.5918C23.6444 17.5646 21.5721 15.9967 19.1988 15.056ZM13.9791 14.0584C12.8661 14.0584 11.778 13.7288 10.8526 13.1112C9.92712 12.4936 9.2058 11.6159 8.77986 10.5889C8.35392 9.56194 8.24247 8.43189 8.45961 7.34166C8.67676 6.25144 9.21274 5.25 9.99978 4.46399C10.7868 3.67798 11.7896 3.14271 12.8812 2.92585C13.9729 2.70899 15.1044 2.82029 16.1327 3.24567C17.1611 3.67106 18.04 4.39142 18.6584 5.31567C19.2767 6.23992 19.6068 7.32654 19.6068 8.43812C19.6068 9.92871 19.0139 11.3582 17.9585 12.4123C16.9031 13.4663 15.4717 14.0584 13.9791 14.0584Z" fill="white"/>
</svg>
