<svg width="30" height="30" viewBox="0 0 30 30" fill="none" xmlns="http://www.w3.org/2000/svg">
<path d="M28.5 13.4823H26.895C26.5602 10.8457 25.3574 8.39508 23.4756 6.51582C21.5939 4.63655 19.14 3.43528 16.5 3.10093V1.49803C16.5 1.10073 16.342 0.719699 16.0607 0.438763C15.7794 0.157828 15.3978 0 15 0C14.6022 0 14.2206 0.157828 13.9393 0.438763C13.658 0.719699 13.5 1.10073 13.5 1.49803V3.10093C10.86 3.43528 8.40611 4.63655 6.52438 6.51582C4.64264 8.39508 3.43979 10.8457 3.105 13.4823H1.5C1.10218 13.4823 0.720644 13.6401 0.43934 13.921C0.158035 14.202 0 14.583 0 14.9803C0 15.3776 0.158035 15.7586 0.43934 16.0396C0.720644 16.3205 1.10218 16.4783 1.5 16.4783H3.105C3.43979 19.1149 4.64264 21.5655 6.52438 23.4448C8.40611 25.3241 10.86 26.5254 13.5 26.8597V28.4626C13.5 28.8599 13.658 29.2409 13.9393 29.5219C14.2206 29.8028 14.6022 29.9606 15 29.9606C15.3978 29.9606 15.7794 29.8028 16.0607 29.5219C16.342 29.2409 16.5 28.8599 16.5 28.4626V26.8597C19.14 26.5254 21.5939 25.3241 23.4756 23.4448C25.3574 21.5655 26.5602 19.1149 26.895 16.4783H28.5C28.8978 16.4783 29.2794 16.3205 29.5607 16.0396C29.842 15.7586 30 15.3776 30 14.9803C30 14.583 29.842 14.202 29.5607 13.921C29.2794 13.6401 28.8978 13.4823 28.5 13.4823ZM22.5 16.4783H23.865C23.5524 18.3156 22.6757 20.0104 21.3562 21.3281C20.0367 22.6459 18.3397 23.5215 16.5 23.8337V22.4705C16.5 22.0732 16.342 21.6921 16.0607 21.4112C15.7794 21.1303 15.3978 20.9724 15 20.9724C14.6022 20.9724 14.2206 21.1303 13.9393 21.4112C13.658 21.6921 13.5 22.0732 13.5 22.4705V23.8337C11.6603 23.5215 9.96333 22.6459 8.64384 21.3281C7.32435 20.0104 6.44762 18.3156 6.135 16.4783H7.5C7.89782 16.4783 8.27936 16.3205 8.56066 16.0396C8.84196 15.7586 9 15.3776 9 14.9803C9 14.583 8.84196 14.202 8.56066 13.921C8.27936 13.6401 7.89782 13.4823 7.5 13.4823H6.135C6.44762 11.645 7.32435 9.95025 8.64384 8.63249C9.96333 7.31474 11.6603 6.43916 13.5 6.12695V7.49016C13.5 7.88746 13.658 8.26849 13.9393 8.54943C14.2206 8.83036 14.6022 8.98819 15 8.98819C15.3978 8.98819 15.7794 8.83036 16.0607 8.54943C16.342 8.26849 16.5 7.88746 16.5 7.49016V6.12695C18.3397 6.43916 20.0367 7.31474 21.3562 8.63249C22.6757 9.95025 23.5524 11.645 23.865 13.4823H22.5C22.1022 13.4823 21.7206 13.6401 21.4393 13.921C21.158 14.202 21 14.583 21 14.9803C21 15.3776 21.158 15.7586 21.4393 16.0396C21.7206 16.3205 22.1022 16.4783 22.5 16.4783ZM15 13.4823C14.7033 13.4823 14.4133 13.5701 14.1666 13.7347C13.92 13.8994 13.7277 14.1333 13.6142 14.407C13.5006 14.6808 13.4709 14.982 13.5288 15.2726C13.5867 15.5632 13.7296 15.8301 13.9393 16.0396C14.1491 16.2491 14.4164 16.3918 14.7074 16.4496C14.9983 16.5074 15.2999 16.4777 15.574 16.3643C15.8481 16.2509 16.0824 16.0589 16.2472 15.8126C16.412 15.5662 16.5 15.2766 16.5 14.9803C16.5 14.583 16.342 14.202 16.0607 13.921C15.7794 13.6401 15.3978 13.4823 15 13.4823Z" fill="white"/>
</svg>
